<?xml version="1.0" encoding="UTF-8"?>
<svg version="1.1" xmlns="http://www.w3.org/2000/svg" width="624" height="735">
<path d="M0 0 C-0.02300171 1.2306015 -0.04600342 2.461203 -0.06970215 3.72909546 C-0.27642258 15.35172355 -0.39821703 26.97258779 -0.43784332 38.5970211 C-0.46091909 44.57316384 -0.51342602 50.54596739 -0.63427734 56.52099609 C-0.74991631 62.29273583 -0.78682666 68.06020612 -0.7702179 73.83302689 C-0.77752836 76.02999583 -0.81274797 78.22706218 -0.87687683 80.42310715 C-1.62072392 91.8033032 -1.62072392 91.8033032 2.5849781 101.89627457 C6.39774801 105.11615563 10.59596588 107.26832191 15.17236519 109.20249939 C17.41674441 110.1818492 19.39225834 111.42802492 21.40234375 112.8203125 C21.98886719 113.201875 22.57539063 113.5834375 23.1796875 113.9765625 C24.04980469 114.54503906 24.04980469 114.54503906 24.9375 115.125 C32.1036043 119.78365289 39.29799336 124.3970676 46.5 129 C56.35514247 135.29994796 66.18958215 141.63065031 76 148 C82.85681196 144.49318972 89.31718773 140.54507933 95.68701172 136.23022461 C101.28927388 132.44534238 106.97543445 128.8041622 112.6875 125.1875 C120.93044218 119.96513453 129.1352194 114.68881333 137.3034668 109.3503418 C138.06699463 108.85187744 138.83052246 108.35341309 139.6171875 107.83984375 C140.27315918 107.41050537 140.92913086 106.98116699 141.60498047 106.53881836 C144 105 144 105 145.94873238 104.09865379 C150.28557933 101.92833219 150.28557933 101.92833219 152.7445507 97.94720936 C153.02708662 95.35370201 153.05521254 92.86120945 153 90.25268555 C153.01638268 88.78855476 153.01638268 88.78855476 153.03309631 87.29484558 C153.05976991 84.07440829 153.03015001 80.85708367 153 77.63671875 C153.00751829 75.40182585 153.01855199 73.16694224 153.03295898 70.93208313 C153.06140398 65.05450416 153.0420941 59.1780136 153.01287842 53.30047607 C152.9914939 47.30115625 153.01521631 41.30203401 153.03515625 35.30273438 C153.06761428 23.5349106 153.04962977 11.76774382 153 0 C154.75740621 0.94935272 156.51370267 1.90075996 158.26953125 2.85302734 C159.24768799 3.38262054 160.22584473 3.91221375 161.23364258 4.45785522 C164.62002103 6.34563943 167.81420376 8.42163872 171 10.625 C176.7230117 14.50969741 182.51677103 18.25995914 188.375 21.9375 C194.31671928 25.67077168 200.24023968 29.42751219 206.125 33.25 C213.16703281 37.82391674 220.23630567 42.35412777 227.3125 46.875 C237.47666569 53.37145416 247.60290018 59.92370431 257.70947266 66.50927734 C263.43460938 70.23531495 269.17372751 73.93982005 274.91015625 77.6484375 C277.05518568 79.03569018 279.19955794 80.42395345 281.34375 81.8125 C282.07118408 82.28349121 282.79861816 82.75448242 283.5480957 83.23974609 C284.89569224 84.11230832 286.24319853 84.98500995 287.59057617 85.85791016 C288.22455322 86.26831543 288.85853027 86.6787207 289.51171875 87.1015625 C290.14400139 87.53374651 290.77628403 87.96593052 291.42772675 88.41121101 C294.07818408 90.12156145 294.07818408 90.12156145 297.43935394 91.57433891 C306.75610809 96.10133733 306.75610809 96.10133733 308.81539536 100.9001298 C310.14235044 106.60551568 309.86252594 112.45169174 309.74804688 118.27001953 C309.76048096 120.2304536 309.77893035 122.19085733 309.80291748 124.15118408 C309.84953731 129.45815985 309.80856093 134.76113005 309.7488308 140.06784296 C309.69838329 145.62726819 309.71964647 151.18648355 309.73059082 156.74606323 C309.73775372 166.0792516 309.68873643 175.41085904 309.60546875 184.74365234 C309.50985888 195.52861746 309.49941547 206.31108584 309.5353694 217.09635842 C309.56833196 227.4812028 309.5446339 237.86515506 309.49391174 248.24990463 C309.47312456 252.66539565 309.47150138 257.08027782 309.48521423 261.49579239 C309.49854122 266.69579211 309.46201707 271.89314296 309.38718414 277.09259796 C309.36759487 278.99883382 309.36490558 280.90533058 309.38047028 282.81160355 C309.48223588 297.21905976 309.48223588 297.21905976 305.79483891 301.64955139 C303.25567674 303.45592352 300.84938704 304.75840022 298 306 C296.95706787 306.68932617 295.91413574 307.37865234 294.83959961 308.08886719 C293.95280518 308.65250977 293.06601074 309.21615234 292.15234375 309.796875 C291.14365234 310.43987549 290.13496094 311.08287598 289.09570312 311.74536133 C288.05349609 312.40689209 287.01128906 313.06842285 285.9375 313.75 C283.71724114 315.1650402 281.49718953 316.58040563 279.27734375 317.99609375 C278.20339355 318.6804248 277.12944336 319.36475586 276.02294922 320.06982422 C272.00518932 322.63519409 267.99985622 325.21932835 264 327.8125 C263.33822754 328.24151611 262.67645508 328.67053223 261.99462891 329.11254883 C260.67780414 329.96649072 259.36107162 330.8205749 258.04443359 331.67480469 C255.82911539 333.11076686 253.61200561 334.54393237 251.39453125 335.9765625 C250.62818359 336.4718042 249.86183594 336.9670459 249.07226562 337.47729492 C247.616714 338.41783666 246.16099765 339.35812356 244.70507812 340.2980957 C244.04572266 340.72437256 243.38636719 341.15064941 242.70703125 341.58984375 C241.76657959 342.19675049 241.76657959 342.19675049 240.80712891 342.81591797 C239.0650063 343.95740603 237.35161495 345.13459541 235.63671875 346.31640625 C233 348 233 348 231 348 C231 380.67 231 413.34 231 447 C227.49019217 445.59607687 225.04723513 444.53178564 222.015625 442.5234375 C221.25870361 442.02610107 220.50178223 441.52876465 219.72192383 441.01635742 C218.90618896 440.47470947 218.0904541 439.93306152 217.25 439.375 C215.44718786 438.19053324 213.64377462 437.006981 211.83984375 435.82421875 C210.88835449 435.19950684 209.93686523 434.57479492 208.95654297 433.93115234 C203.93082051 430.64845502 198.87155182 427.4185044 193.8125 424.1875 C192.77947754 423.52717773 191.74645508 422.86685547 190.68212891 422.18652344 C188.55565875 420.82739035 186.42902922 419.46850657 184.30224609 418.10986328 C179.69742213 415.16776002 175.09392684 412.2235828 170.4909668 409.27856445 C168.28820913 407.86922773 166.08525464 406.46019858 163.88208008 405.05151367 C162.89232178 404.41834229 161.90256348 403.7851709 160.8828125 403.1328125 C160.01027832 402.57480957 159.13774414 402.01680664 158.23876953 401.44189453 C156.4821477 400.31053046 154.73850829 399.15900553 153 398 C152.63085651 396.19216728 152.63085651 396.19216728 152.63923645 393.96310425 C152.63305046 392.69685715 152.63305046 392.69685715 152.6267395 391.4050293 C152.63752533 390.477146 152.64831116 389.5492627 152.65942383 388.59326172 C152.65898575 387.61761261 152.65854767 386.6419635 152.65809631 385.63674927 C152.66019206 382.40086083 152.68356029 379.1654858 152.70703125 375.9296875 C152.7126244 373.69052412 152.71689582 371.45135708 152.71989441 369.21218872 C152.73136523 363.31017982 152.76085172 357.40839135 152.79400635 351.50646973 C152.82465903 345.48741641 152.83838947 339.46832757 152.85351562 333.44921875 C152.88571922 321.63271549 152.9369426 309.81637605 153 298 C151.82458649 297.54108871 151.82458649 297.54108871 150.62542725 297.07290649 C148.18777507 296.07673612 146.20395569 294.97313904 144.015625 293.5234375 C143.25870361 293.02610107 142.50178223 292.52876465 141.72192383 292.01635742 C140.90618896 291.47470947 140.0904541 290.93306152 139.25 290.375 C137.44718786 289.19053324 135.64377462 288.006981 133.83984375 286.82421875 C132.88835449 286.19950684 131.93686523 285.57479492 130.95654297 284.93115234 C124.89454388 280.97158069 118.78765302 277.08166452 112.67993164 273.19311523 C107.68316408 270.00922863 102.69744087 266.8119929 97.75135803 263.54997253 C95.45464935 262.03637081 93.15204482 260.53187413 90.84896851 259.02798462 C89.21682108 257.95674453 87.59329839 256.87240059 85.9699707 255.7878418 C84.98343506 255.14500244 83.99689941 254.50216309 82.98046875 253.83984375 C82.11317139 253.26613037 81.24587402 252.69241699 80.35229492 252.10131836 C78.10859658 250.80561482 78.10859658 250.80561482 75.87695312 251.21484375 C72.8193044 252.4939018 70.09127284 254.27682811 67.3125 256.0625 C66.6311499 256.4944165 65.9497998 256.92633301 65.24780273 257.37133789 C62.82799915 258.90822944 60.41402579 260.45404995 58 262 C55.99491012 263.27883157 53.98969506 264.55746689 51.984375 265.8359375 C42.57545512 271.84141598 33.18191378 277.870564 23.8125 283.9375 C22.81186523 284.58477051 22.81186523 284.58477051 21.79101562 285.24511719 C18.4952914 287.37831979 15.20520695 289.51964305 11.921875 291.671875 C10.63543378 292.51044291 9.34897621 293.34898576 8.0625 294.1875 C7.47637939 294.57478271 6.89025879 294.96206543 6.28637695 295.36108398 C2.22589657 298 2.22589657 298 0 298 C0.05107407 299.21949844 0.10214813 300.43899689 0.1547699 301.69544983 C0.62292392 313.24114513 0.96664216 324.78489733 1.19167995 336.33796024 C1.31129056 342.27728926 1.47312468 348.20890964 1.73510742 354.14379883 C3.43593199 393.6940948 3.43593199 393.6940948 -2.1484375 401.55230713 C-7.29260342 406.79217464 -13.06944798 409.50346485 -19.94958496 411.82978821 C-25.2269753 413.85432072 -29.71626465 417.09692124 -34.375 420.25 C-36.19180166 421.41046285 -38.01166661 422.56615842 -39.8359375 423.71484375 C-44.57308043 426.72323711 -49.29111179 429.76011308 -54 432.8125 C-54.67925537 433.25215088 -55.35851074 433.69180176 -56.05834961 434.14477539 C-59.4080447 436.31423749 -62.75213019 438.49183504 -66.08984375 440.6796875 C-67.37237491 441.5156571 -68.65492604 442.35159607 -69.9375 443.1875 C-70.52337891 443.57462158 -71.10925781 443.96174316 -71.71289062 444.3605957 C-75.77407516 447 -75.77407516 447 -78 447 C-77.9588356 445.17622078 -77.9588356 445.17622078 -77.9168396 443.31559753 C-77.66937445 431.82585078 -77.51773871 420.33824546 -77.45853233 408.8459425 C-77.4250506 402.9377284 -77.35850614 397.03384091 -77.21484375 391.12719727 C-77.07727664 385.42009354 -77.02859825 379.71834964 -77.04002762 374.00966835 C-77.02904339 371.83852735 -76.98668104 369.66729938 -76.91166306 367.49742699 C-76.18020421 356.0397082 -76.18020421 356.0397082 -80.74796295 346.04001236 C-85.03881477 342.58476387 -89.74440682 340.24552136 -94.76934052 338.0465517 C-98.12785924 336.47084572 -101.02750267 334.43996047 -104.0625 332.3125 C-104.72024414 331.8693042 -105.37798828 331.4261084 -106.05566406 330.96948242 C-106.87115723 330.41804565 -106.87115723 330.41804565 -107.703125 329.85546875 C-114.15658349 325.53278045 -120.73242277 321.39581532 -127.29125977 317.2355957 C-129.29292202 315.96172206 -131.28240583 314.66850142 -133.25897694 313.35603333 C-135.93715383 311.61454158 -138.67333804 310.10870714 -141.5092802 308.63973999 C-153.39336407 302.15224751 -153.39336407 302.15224751 -156.05194306 296.93606949 C-157.71510138 291.22129189 -157.46434471 285.36440912 -157.3449707 279.46875 C-157.37104294 277.5159189 -157.40473803 275.5631771 -157.44541931 273.6105957 C-157.53134183 268.33590718 -157.50423135 263.06753241 -157.45079064 257.79263306 C-157.41726551 253.37885264 -157.44160775 248.96617055 -157.46632928 244.55239105 C-157.52457043 234.13538681 -157.49323871 223.72138055 -157.40161133 213.3046875 C-157.30848504 202.58010623 -157.34902067 191.86211957 -157.45840389 181.13784027 C-157.5488199 171.90720952 -157.56479716 162.67857476 -157.51974744 153.44760895 C-157.49307652 147.94426955 -157.4920009 142.44423022 -157.55904579 136.94116211 C-157.9148829 103.6091803 -157.9148829 103.6091803 -153.1179657 96.02401924 C-148.78947554 91.69938478 -144.06172673 89.45883008 -138.24959946 87.73663139 C-134.95450347 86.65765214 -132.52672755 84.93927996 -129.7109375 82.93359375 C-128.82164551 82.3519043 -127.93235352 81.77021484 -127.01611328 81.17089844 C-125.70876221 80.31286621 -125.70876221 80.31286621 -124.375 79.4375 C-122.42203098 78.15991779 -120.46890478 76.8825758 -118.515625 75.60546875 C-117.58041016 74.99364746 -116.64519531 74.38182617 -115.68164062 73.75146484 C-109.79914486 69.90941963 -103.89509815 66.10065719 -97.99316406 62.28857422 C-96.01245505 61.00805215 -94.03332596 59.72512498 -92.0546875 58.44140625 C-78.31413734 49.52992618 -64.50973097 40.71836424 -50.7109375 31.89746094 C-35.14732253 21.94959154 -35.14732253 21.94959154 -19.625 11.9375 C-9.80426003 5.57559276 -9.80426003 5.57559276 -5.5 2.8125 C-4.6440625 2.26207031 -3.788125 1.71164063 -2.90625 1.14453125 C-1 0 -1 0 0 0 Z M-77 151 C-77 182.68 -77 214.36 -77 247 C-73.25962107 245.50384843 -70.62476419 244.25137054 -67.359375 242.0859375 C-66.46621582 241.49780273 -65.57305664 240.90966797 -64.65283203 240.30371094 C-63.69489746 239.66723633 -62.73696289 239.03076172 -61.75 238.375 C-59.68034027 237.01202909 -57.61000373 235.65008546 -55.5390625 234.2890625 C-53.9288623 233.22993652 -53.9288623 233.22993652 -52.28613281 232.14941406 C-46.92482566 228.64265714 -41.52544772 225.19605516 -36.125 221.75 C-34.03899443 220.41677316 -31.95305547 219.0834421 -29.8671875 217.75 C-28.87686523 217.11707031 -27.88654297 216.48414063 -26.86621094 215.83203125 C-25.44743652 214.92517578 -25.44743652 214.92517578 -24 214 C-23.11860352 213.43667969 -22.23720703 212.87335938 -21.32910156 212.29296875 C-18.96745008 210.78165889 -16.60829907 209.26653399 -14.25 207.75 C-13.24090576 207.10562988 -13.24090576 207.10562988 -12.21142578 206.44824219 C-8.63745673 204.14466763 -5.27483879 201.72486587 -2 199 C-8.72924388 194.20567381 -15.57129139 189.65198805 -22.5625 185.25 C-24.50815561 184.0187712 -26.45346477 182.78699476 -28.3984375 181.5546875 C-29.34944336 180.95237305 -30.30044922 180.35005859 -31.28027344 179.72949219 C-35.09816143 177.30167185 -38.89430079 174.84114564 -42.6875 172.375 C-48.81035335 168.40100787 -54.95772983 164.46722488 -61.125 160.5625 C-62.29808716 159.81782471 -62.29808716 159.81782471 -63.49487305 159.05810547 C-64.61502808 158.35065186 -64.61502808 158.35065186 -65.7578125 157.62890625 C-66.4089502 157.21713135 -67.06008789 156.80535645 -67.73095703 156.38110352 C-70.78270109 154.52359155 -73.89811191 152.77250748 -77 151 Z M222 155.5 C220.44444109 156.51368203 218.88842314 157.52665988 217.33203125 158.5390625 C216.47947754 159.09368164 215.62692383 159.64830078 214.74853516 160.21972656 C209.74328956 163.46171012 204.71363315 166.66553685 199.6875 169.875 C184.70588652 179.45197628 169.75366903 189.07425925 155 199 C158.24702489 201.66590187 161.53258613 204.07621078 165.078125 206.328125 C166.06167969 206.95501221 167.04523438 207.58189941 168.05859375 208.2277832 C169.11175781 208.89511475 170.16492188 209.56244629 171.25 210.25 C172.92946017 211.31947453 174.60891764 212.38895333 176.28820801 213.45869446 C178.03077017 214.56823715 179.77410642 215.67655514 181.51757812 216.78466797 C187.01898098 220.28258001 192.5091136 223.79811277 198 227.3125 C199.03431152 227.97354736 200.06862305 228.63459473 201.13427734 229.31567383 C205.84859424 232.33083631 210.55606009 235.35523729 215.2421875 238.4140625 C216.03238281 238.92928467 216.82257813 239.44450684 217.63671875 239.9753418 C219.08141167 240.91908808 220.52426194 241.86566398 221.96484375 242.81567383 C224.62908592 244.55638955 226.96571545 245.98857182 230 247 C230 215.32 230 183.64 230 151 C227.41526629 151 224.18345562 154.06828301 222 155.5 Z " fill="#516FFA" transform="translate(232,74)"/>
<path d="M0 0 C12.4801139 6.80733485 12.4801139 6.80733485 18 10.625 C23.7230117 14.50969741 29.51677103 18.25995914 35.375 21.9375 C41.31671928 25.67077168 47.24023968 29.42751219 53.125 33.25 C60.16703281 37.82391674 67.23630567 42.35412777 74.3125 46.875 C84.47666569 53.37145416 94.60290018 59.92370431 104.70947266 66.50927734 C110.43460938 70.23531495 116.17372751 73.93982005 121.91015625 77.6484375 C124.05518568 79.03569018 126.19955794 80.42395345 128.34375 81.8125 C129.07118408 82.28349121 129.79861816 82.75448242 130.5480957 83.23974609 C131.89569224 84.11230832 133.24319853 84.98500995 134.59057617 85.85791016 C135.22455322 86.26831543 135.85853027 86.6787207 136.51171875 87.1015625 C137.14400139 87.53374651 137.77628403 87.96593052 138.42772675 88.41121101 C141.07818408 90.12156145 141.07818408 90.12156145 144.43935394 91.57433891 C153.75610809 96.10133733 153.75610809 96.10133733 155.81539536 100.9001298 C157.14235044 106.60551568 156.86252594 112.45169174 156.74804688 118.27001953 C156.76048096 120.2304536 156.77893035 122.19085733 156.80291748 124.15118408 C156.84953731 129.45815985 156.80856093 134.76113005 156.7488308 140.06784296 C156.69838329 145.62726819 156.71964647 151.18648355 156.73059082 156.74606323 C156.73775372 166.0792516 156.68873643 175.41085904 156.60546875 184.74365234 C156.50985888 195.52861746 156.49941547 206.31108584 156.5353694 217.09635842 C156.56833196 227.4812028 156.5446339 237.86515506 156.49391174 248.24990463 C156.47312456 252.66539565 156.47150138 257.08027782 156.48521423 261.49579239 C156.49854122 266.69579211 156.46201707 271.89314296 156.38718414 277.09259796 C156.36759487 278.99883382 156.36490558 280.90533058 156.38047028 282.81160355 C156.48223588 297.21905976 156.48223588 297.21905976 152.79483891 301.64955139 C150.25567674 303.45592352 147.84938704 304.75840022 145 306 C143.43560181 307.03398926 143.43560181 307.03398926 141.83959961 308.08886719 C140.95280518 308.65250977 140.06601074 309.21615234 139.15234375 309.796875 C137.63930664 310.76137573 137.63930664 310.76137573 136.09570312 311.74536133 C135.05349609 312.40689209 134.01128906 313.06842285 132.9375 313.75 C130.71724114 315.1650402 128.49718953 316.58040563 126.27734375 317.99609375 C125.20339355 318.6804248 124.12944336 319.36475586 123.02294922 320.06982422 C119.00518932 322.63519409 114.99985622 325.21932835 111 327.8125 C110.33822754 328.24151611 109.67645508 328.67053223 108.99462891 329.11254883 C107.67780414 329.96649072 106.36107162 330.8205749 105.04443359 331.67480469 C102.82911539 333.11076686 100.61200561 334.54393237 98.39453125 335.9765625 C97.62818359 336.4718042 96.86183594 336.9670459 96.07226562 337.47729492 C94.616714 338.41783666 93.16099765 339.35812356 91.70507812 340.2980957 C91.04572266 340.72437256 90.38636719 341.15064941 89.70703125 341.58984375 C89.08006348 341.99444824 88.4530957 342.39905273 87.80712891 342.81591797 C86.0650063 343.95740603 84.35161495 345.13459541 82.63671875 346.31640625 C80 348 80 348 78 348 C78 380.67 78 413.34 78 447 C74.49019217 445.59607687 72.04723513 444.53178564 69.015625 442.5234375 C68.25870361 442.02610107 67.50178223 441.52876465 66.72192383 441.01635742 C65.90618896 440.47470947 65.0904541 439.93306152 64.25 439.375 C62.44718786 438.19053324 60.64377462 437.006981 58.83984375 435.82421875 C57.88835449 435.19950684 56.93686523 434.57479492 55.95654297 433.93115234 C50.93082051 430.64845502 45.87155182 427.4185044 40.8125 424.1875 C39.77947754 423.52717773 38.74645508 422.86685547 37.68212891 422.18652344 C35.55565875 420.82739035 33.42902922 419.46850657 31.30224609 418.10986328 C26.69742213 415.16776002 22.09392684 412.2235828 17.4909668 409.27856445 C15.28820913 407.86922773 13.08525464 406.46019858 10.88208008 405.05151367 C9.89232178 404.41834229 8.90256348 403.7851709 7.8828125 403.1328125 C7.01027832 402.57480957 6.13774414 402.01680664 5.23876953 401.44189453 C3.4821477 400.31053046 1.73850829 399.15900553 0 398 C-0.36914349 396.19216728 -0.36914349 396.19216728 -0.36076355 393.96310425 C-0.36488754 393.11893951 -0.36901154 392.27477478 -0.3732605 391.4050293 C-0.36247467 390.477146 -0.35168884 389.5492627 -0.34057617 388.59326172 C-0.34123329 387.12978806 -0.34123329 387.12978806 -0.34190369 385.63674927 C-0.33980794 382.40086083 -0.31643971 379.1654858 -0.29296875 375.9296875 C-0.2873756 373.69052412 -0.28310418 371.45135708 -0.28010559 369.21218872 C-0.26863477 363.31017982 -0.23914828 357.40839135 -0.20599365 351.50646973 C-0.17534097 345.48741641 -0.16161053 339.46832757 -0.14648438 333.44921875 C-0.11428078 321.63271549 -0.0630574 309.81637605 0 298 C-0.78360901 297.69405914 -1.56721802 297.38811829 -2.37457275 297.07290649 C-4.81222493 296.07673612 -6.79604431 294.97313904 -8.984375 293.5234375 C-9.74129639 293.02610107 -10.49821777 292.52876465 -11.27807617 292.01635742 C-12.09381104 291.47470947 -12.9095459 290.93306152 -13.75 290.375 C-15.55281214 289.19053324 -17.35622538 288.006981 -19.16015625 286.82421875 C-20.11164551 286.19950684 -21.06313477 285.57479492 -22.04345703 284.93115234 C-27.06918731 281.64844991 -32.12885243 278.41914935 -37.1875 275.1875 C-38.21907227 274.52645264 -39.25064453 273.86540527 -40.31347656 273.18432617 C-45.30544902 269.98757045 -50.30431416 266.80295929 -55.32600403 263.65312195 C-57.65864753 262.18892418 -59.98740068 260.71860439 -62.31582642 259.24771118 C-63.97132149 258.20555353 -65.63247018 257.1723942 -67.29370117 256.1394043 C-68.78800659 255.1944812 -68.78800659 255.1944812 -70.3125 254.23046875 C-71.63701172 253.40131958 -71.63701172 253.40131958 -72.98828125 252.55541992 C-75 251 -75 251 -76 248 C-75.07703125 247.42894531 -74.1540625 246.85789062 -73.203125 246.26953125 C-64.75958429 241.02795377 -56.3921026 235.6810617 -48.07055664 230.24804688 C-40.07383191 225.03249532 -32.03250653 219.88776039 -23.97192383 214.77148438 C-19.34038015 211.82266149 -14.73993517 208.85830018 -10.25390625 205.69140625 C-9.56466064 205.20889404 -8.87541504 204.72638184 -8.1652832 204.22924805 C-6.93227474 203.35741912 -5.7096808 202.47057127 -4.50073242 201.56567383 C-2.890625 200.4296875 -2.890625 200.4296875 0 199 C2.3671875 199.4453125 2.3671875 199.4453125 5 201 C5.60521484 201.34659668 6.21042969 201.69319336 6.83398438 202.05029297 C9.03788343 203.33103563 11.20720865 204.65908627 13.375 206 C14.17301025 206.49056885 14.97102051 206.9811377 15.79321289 207.48657227 C21.35867621 210.92932677 26.82551785 214.49785348 32.24804688 218.16040039 C38.01410797 222.04427179 43.88753127 225.74780956 49.77490234 229.44433594 C56.13648703 233.44215914 62.45203065 237.50709888 68.74560547 241.61108398 C72.29144654 243.94440172 72.29144654 243.94440172 76 246 C76 246.66 76 247.32 76 248 C76.66 248 77.32 248 78 248 C78 182.99 78 117.98 78 51 C68.10862837 57.04472711 58.45029325 62.96651749 48.87890625 69.421875 C43.86972733 72.77765116 38.75371914 75.96225086 33.64477539 79.16308594 C25.84975096 84.06115704 18.15382121 89.1078759 10.4765625 94.18823242 C9.54585938 94.80029541 8.61515625 95.4123584 7.65625 96.04296875 C6.82931641 96.58977295 6.00238281 97.13657715 5.15039062 97.69995117 C3 99 3 99 0 100 C0 67 0 34 0 0 Z " fill="#408CEA" transform="translate(385,74)"/>
<path d="M0 0 C-0.02300171 1.2306015 -0.04600342 2.461203 -0.06970215 3.72909546 C-0.27642258 15.35172355 -0.39821703 26.97258779 -0.43784332 38.5970211 C-0.46091909 44.57316384 -0.51342602 50.54596739 -0.63427734 56.52099609 C-0.74991631 62.29273583 -0.78682666 68.06020612 -0.7702179 73.83302689 C-0.77752836 76.02999583 -0.81274797 78.22706218 -0.87687683 80.42310715 C-1.62072392 91.8033032 -1.62072392 91.8033032 2.5849781 101.89627457 C6.39774801 105.11615563 10.59596588 107.26832191 15.17236519 109.20249939 C17.41674441 110.1818492 19.39225834 111.42802492 21.40234375 112.8203125 C21.98886719 113.201875 22.57539063 113.5834375 23.1796875 113.9765625 C24.04980469 114.54503906 24.04980469 114.54503906 24.9375 115.125 C32.1036043 119.78365289 39.29799336 124.3970676 46.5 129 C56.35514247 135.29994796 66.18958215 141.63065031 76 148 C74.66751655 151.14404811 73.51892925 152.63118779 70.5703125 154.33984375 C69.8683374 154.75580811 69.1663623 155.17177246 68.44311523 155.6003418 C67.67813721 156.041604 66.91315918 156.48286621 66.125 156.9375 C64.47114158 157.91932806 62.81885097 158.90380085 61.16796875 159.890625 C60.31122559 160.40173828 59.45448242 160.91285156 58.57177734 161.43945312 C54.46677346 163.93035732 50.45213455 166.55422763 46.4375 169.1875 C38.63211547 174.29426791 30.79618404 179.35059545 22.9375 184.375 C21.91519287 185.02879639 20.89288574 185.68259277 19.83959961 186.35620117 C17.86664062 187.61718 15.89135727 188.87453072 13.91357422 190.12792969 C11.90916703 191.41582933 9.92191118 192.73069122 7.94970703 194.06738281 C6.97759277 194.71803711 6.00547852 195.36869141 5.00390625 196.0390625 C4.13709229 196.63154785 3.27027832 197.2240332 2.37719727 197.83447266 C0 199 0 199 -2.10693359 198.80371094 C-5.3404986 197.43088452 -8.24037064 195.51639324 -11.1875 193.625 C-11.89527588 193.17656738 -12.60305176 192.72813477 -13.33227539 192.26611328 C-18.91052018 188.7227502 -24.45980772 185.1336904 -30.00195312 181.53417969 C-37.55907103 176.6264744 -45.15153874 171.77433397 -52.74389648 166.92138672 C-58.29708588 163.37140674 -63.846374 159.81554752 -69.38989258 156.25048828 C-70.02948158 155.8392421 -70.66907059 155.42799591 -71.32804108 155.00428772 C-72.88539895 154.00291793 -74.44270495 153.00146748 -76 152 C-76.01030746 153.19825409 -76.02061493 154.39650818 -76.03123474 155.631073 C-76.12883389 166.90306943 -76.23155496 178.17500899 -76.33933926 189.44691277 C-76.39459117 195.24242089 -76.44801479 201.03793404 -76.49731445 206.83349609 C-76.54492454 212.42263419 -76.59726611 218.01170948 -76.65294075 223.60077286 C-76.67337953 225.73707651 -76.69209005 227.87339739 -76.70907402 230.00973129 C-76.73308432 232.99336755 -76.76314347 235.97688436 -76.79467773 238.96044922 C-76.8004332 239.85092957 -76.80618866 240.74140991 -76.81211853 241.65887451 C-76.88594784 247.77189568 -76.88594784 247.77189568 -78 250 C-78.09356686 253.08192445 -78.12571294 256.14112949 -78.11352539 259.22314453 C-78.11367142 260.1792865 -78.11381744 261.13542847 -78.1139679 262.12054443 C-78.1132694 265.29132327 -78.1054799 268.46204388 -78.09765625 271.6328125 C-78.09579185 273.82713794 -78.09436805 276.02146379 -78.09336853 278.21578979 C-78.0895451 283.99934024 -78.07971628 289.7828657 -78.06866455 295.56640625 C-78.0584467 301.46484031 -78.05387011 307.3632784 -78.04882812 313.26171875 C-78.03809388 324.84115683 -78.02101953 336.42057634 -78 348 C-79.27373683 347.37159912 -80.5465034 346.74123134 -81.81886292 346.11004639 C-82.52773934 345.75922375 -83.23661577 345.40840111 -83.9669733 345.04694748 C-86.62526885 343.67800538 -89.09922661 342.10585561 -91.58984375 340.453125 C-93.11834961 339.44511841 -93.11834961 339.44511841 -94.67773438 338.41674805 C-95.75345703 337.70172119 -96.82917969 336.98669434 -97.9375 336.25 C-100.25756944 334.71770353 -102.57988497 333.18882813 -104.90234375 331.66015625 C-105.49139496 331.27193192 -106.08044617 330.88370758 -106.68734741 330.48371887 C-113.69196824 325.87379568 -120.76590333 321.3725192 -127.84741211 316.88183594 C-129.72510231 315.68675141 -131.59079484 314.47258175 -133.44325733 313.23875427 C-136.04622938 311.54395531 -138.71377662 310.09131212 -141.4715147 308.66377258 C-153.38973494 302.15592491 -153.38973494 302.15592491 -156.05364251 296.93498802 C-157.71612334 291.22115706 -157.46432299 285.3633362 -157.3449707 279.46875 C-157.37104294 277.5159189 -157.40473803 275.5631771 -157.44541931 273.6105957 C-157.53134183 268.33590718 -157.50423135 263.06753241 -157.45079064 257.79263306 C-157.41726551 253.37885264 -157.44160775 248.96617055 -157.46632928 244.55239105 C-157.52457043 234.13538681 -157.49323871 223.72138055 -157.40161133 213.3046875 C-157.30848504 202.58010623 -157.34902067 191.86211957 -157.45840389 181.13784027 C-157.5488199 171.90720952 -157.56479716 162.67857476 -157.51974744 153.44760895 C-157.49307652 147.94426955 -157.4920009 142.44423022 -157.55904579 136.94116211 C-157.9148829 103.6091803 -157.9148829 103.6091803 -153.1179657 96.02401924 C-148.78947554 91.69938478 -144.06172673 89.45883008 -138.24959946 87.73663139 C-134.95450347 86.65765214 -132.52672755 84.93927996 -129.7109375 82.93359375 C-128.82164551 82.3519043 -127.93235352 81.77021484 -127.01611328 81.17089844 C-125.70876221 80.31286621 -125.70876221 80.31286621 -124.375 79.4375 C-122.42203098 78.15991779 -120.46890478 76.8825758 -118.515625 75.60546875 C-117.58041016 74.99364746 -116.64519531 74.38182617 -115.68164062 73.75146484 C-109.79914486 69.90941963 -103.89509815 66.10065719 -97.99316406 62.28857422 C-96.01245505 61.00805215 -94.03332596 59.72512498 -92.0546875 58.44140625 C-78.31413734 49.52992618 -64.50973097 40.71836424 -50.7109375 31.89746094 C-35.14732253 21.94959154 -35.14732253 21.94959154 -19.625 11.9375 C-9.80426003 5.57559276 -9.80426003 5.57559276 -5.5 2.8125 C-4.6440625 2.26207031 -3.788125 1.71164063 -2.90625 1.14453125 C-1 0 -1 0 0 0 Z " fill="#3E90EA" transform="translate(232,74)"/>
<path d="M0 0 C0 65.01 0 130.02 0 197 C-0.66 196.67 -1.32 196.34 -2 196 C-2 164.65 -2 133.3 -2 101 C-7.61 104.63 -13.22 108.26 -19 112 C-23.10210384 114.62833888 -27.20563676 117.25414143 -31.3125 119.875 C-39.18702246 124.90658028 -47.04457455 129.96255796 -54.875 135.0625 C-56.49607538 136.11721574 -58.1171682 137.17190466 -59.73828125 138.2265625 C-62.2575521 139.86560619 -64.77580331 141.50615874 -67.29296875 143.1484375 C-71.63547907 145.95361342 -75.99742501 148.57163372 -80.5625 151 C-84.95103752 153.35122207 -88.92833584 155.99419885 -92.96484375 158.8984375 C-96.92230929 161.63861312 -100.98542385 164.19238409 -105.0625 166.75 C-111.27525039 170.64957004 -117.47090836 174.57088978 -123.625 178.5625 C-124.30997559 179.00625977 -124.99495117 179.45001953 -125.70068359 179.90722656 C-129.34855107 182.27280815 -132.99055053 184.6471608 -136.62890625 187.02734375 C-137.39187012 187.52484131 -138.15483398 188.02233887 -138.94091797 188.53491211 C-140.39354051 189.48222659 -141.84450627 190.43208863 -143.29345703 191.38500977 C-144.59264806 192.23130819 -145.90172154 193.06269207 -147.22167969 193.8762207 C-148.83412339 194.89517709 -150.37419024 196.02648127 -151.90234375 197.16796875 C-155 198 -155 198 -157.08178711 197.17041016 C-159.61669686 195.67174394 -161.98583495 194.03401674 -164.375 192.3125 C-166.16575215 191.08330205 -167.95743044 189.85545231 -169.75 188.62890625 C-170.636875 188.01160645 -171.52375 187.39430664 -172.4375 186.75830078 C-176.01315143 184.30480977 -179.68037541 182.01861306 -183.375 179.75 C-190.05030589 175.60825347 -196.66669643 171.38128668 -203.26464844 167.11767578 C-205.0505517 165.96744152 -206.84103036 164.82464582 -208.6328125 163.68359375 C-214.82991386 159.73136074 -220.95199636 155.71383198 -226.9140625 151.41015625 C-228.88729629 150.07619109 -230.86314656 149.04219739 -233 148 C-231.39898437 147.03513672 -231.39898437 147.03513672 -229.765625 146.05078125 C-220.65845602 140.53740303 -211.66261426 134.88250995 -202.75366211 129.05444336 C-196.47017078 124.94621588 -190.15131671 120.89728734 -183.8125 116.875 C-177.11439106 112.62057351 -170.41947014 108.36172795 -163.75 104.0625 C-163.10780518 103.6504834 -162.46561035 103.2384668 -161.80395508 102.81396484 C-158.23136966 100.50515429 -154.73062229 98.11675295 -151.2578125 95.66015625 C-145.65827792 91.71992059 -139.90577428 88.04213492 -134.125 84.375 C-131.9019654 82.95892712 -129.67931369 81.54225298 -127.45703125 80.125 C-126.36342285 79.42761719 -125.26981445 78.73023438 -124.14306641 78.01171875 C-119.68345865 75.15734808 -115.24650125 72.26892512 -110.8125 69.375 C-103.62759645 64.69225064 -96.41812341 60.04936114 -89.1875 55.4375 C-88.27395752 54.85339355 -87.36041504 54.26928711 -86.41918945 53.66748047 C-82.79423038 51.36047388 -79.17821625 49.06656086 -75.4296875 46.96484375 C-71.15252219 44.51448595 -67.05591797 41.83117843 -62.9375 39.125 C-55.75799896 34.43293755 -48.5534584 29.7841628 -41.3125 25.1875 C-32.96947345 19.89007729 -24.63648088 14.57728138 -16.3125 9.25 C-15.23073486 8.55801514 -14.14896973 7.86603027 -13.03442383 7.15307617 C-12.02919678 6.50959229 -11.02396973 5.8661084 -9.98828125 5.203125 C-9.09665283 4.63239258 -8.20502441 4.06166016 -7.28637695 3.47363281 C-1.89695162 0 -1.89695162 0 0 0 Z " fill="#4F72FB" transform="translate(463,125)"/>
<path d="M0 0 C-0.02300171 1.2306015 -0.04600342 2.461203 -0.06970215 3.72909546 C-0.27642258 15.35172355 -0.39821703 26.97258779 -0.43784332 38.5970211 C-0.46091909 44.57316384 -0.51342602 50.54596739 -0.63427734 56.52099609 C-0.74991631 62.29273583 -0.78682666 68.06020612 -0.7702179 73.83302689 C-0.77752836 76.02999583 -0.81274797 78.22706218 -0.87687683 80.42310715 C-1.62072392 91.8033032 -1.62072392 91.8033032 2.5849781 101.89627457 C6.39774801 105.11615563 10.59596588 107.26832191 15.17236519 109.20249939 C17.41674441 110.1818492 19.39225834 111.42802492 21.40234375 112.8203125 C21.98886719 113.201875 22.57539063 113.5834375 23.1796875 113.9765625 C24.04980469 114.54503906 24.04980469 114.54503906 24.9375 115.125 C32.1036043 119.78365289 39.29799336 124.3970676 46.5 129 C56.35514247 135.29994796 66.18958215 141.63065031 76 148 C74.66751655 151.14404811 73.51892925 152.63118779 70.5703125 154.33984375 C69.8683374 154.75580811 69.1663623 155.17177246 68.44311523 155.6003418 C67.67813721 156.041604 66.91315918 156.48286621 66.125 156.9375 C64.47114158 157.91932806 62.81885097 158.90380085 61.16796875 159.890625 C60.31122559 160.40173828 59.45448242 160.91285156 58.57177734 161.43945312 C54.46677346 163.93035732 50.45213455 166.55422763 46.4375 169.1875 C38.63211547 174.29426791 30.79618404 179.35059545 22.9375 184.375 C21.91519287 185.02879639 20.89288574 185.68259277 19.83959961 186.35620117 C17.86664062 187.61718 15.89135727 188.87453072 13.91357422 190.12792969 C11.90916703 191.41582933 9.92191118 192.73069122 7.94970703 194.06738281 C6.97759277 194.71803711 6.00547852 195.36869141 5.00390625 196.0390625 C4.13709229 196.63154785 3.27027832 197.2240332 2.37719727 197.83447266 C0 199 0 199 -2.10693359 198.80371094 C-5.3404986 197.43088452 -8.24037064 195.51639324 -11.1875 193.625 C-12.24916382 192.95235107 -12.24916382 192.95235107 -13.33227539 192.26611328 C-18.91052018 188.7227502 -24.45980772 185.1336904 -30.00195312 181.53417969 C-36.54501846 177.2850153 -43.11474206 173.07805441 -49.6875 168.875 C-50.76064453 168.18825195 -51.83378906 167.50150391 -52.93945312 166.79394531 C-57.50353369 163.87355242 -62.06862052 160.9548493 -66.640625 158.046875 C-67.29716064 157.62809082 -67.95369629 157.20930664 -68.63012695 156.77783203 C-70.29269285 155.71736517 -71.95681966 154.65934652 -73.62109375 153.6015625 C-76 152 -76 152 -78 150 C-78.24640802 146.87959685 -78.36716136 143.84505352 -78.40161133 140.72021484 C-78.42855324 139.27601669 -78.42855324 139.27601669 -78.45603943 137.80264282 C-78.51091584 134.60544839 -78.54877066 131.40842712 -78.58203125 128.2109375 C-78.59392675 127.11950062 -78.60582226 126.02806374 -78.61807823 124.90355301 C-78.6774404 119.12373053 -78.72125037 113.34398904 -78.75512695 107.56396484 C-78.78626031 102.78113351 -78.84888202 98.00032597 -78.93969727 93.21826172 C-79.0492724 87.44500088 -79.10472813 81.67359515 -79.12152672 75.89934158 C-79.13679103 73.70078193 -79.17082683 71.50226787 -79.22416115 69.30430222 C-79.61857442 52.09505995 -79.61857442 52.09505995 -75.62124634 46.92097473 C-72.8134304 44.84503682 -70.18980709 43.39673157 -67 42 C-65.58582114 41.13438689 -64.181448 40.25206385 -62.796875 39.33984375 C-61.45012317 38.53535715 -60.10109535 37.73467034 -58.75 36.9375 C-51.71300366 32.70869116 -44.80194293 28.31571525 -37.9375 23.8125 C-29.91954688 18.55596763 -21.88683439 13.32465168 -13.81692505 8.14828491 C-12.14633039 7.07618867 -10.47732905 6.00161095 -8.80834961 4.92700195 C-7.80167236 4.28206787 -6.79499512 3.63713379 -5.7578125 2.97265625 C-4.8620752 2.39781494 -3.96633789 1.82297363 -3.04345703 1.23071289 C-1 0 -1 0 0 0 Z " fill="#13D5F7" transform="translate(232,74)"/>
<path d="M0 0 C0.86882812 0.51304687 1.73765625 1.02609375 2.6328125 1.5546875 C3.23802734 1.90128418 3.84324219 2.24788086 4.46679688 2.60498047 C6.67069593 3.88572313 8.84002115 5.21377377 11.0078125 6.5546875 C11.80582275 7.04525635 12.60383301 7.5358252 13.42602539 8.04125977 C18.99148871 11.48401427 24.45833035 15.05254098 29.88085938 18.71508789 C35.64692047 22.59895929 41.52034377 26.30249706 47.40771484 29.99902344 C53.76929953 33.99684664 60.08484315 38.06178638 66.37841797 42.16577148 C69.92425904 44.49908922 69.92425904 44.49908922 73.6328125 46.5546875 C73.6328125 47.2146875 73.6328125 47.8746875 73.6328125 48.5546875 C74.6228125 48.5546875 75.6128125 48.5546875 76.6328125 48.5546875 C76.3028125 81.2246875 75.9728125 113.8946875 75.6328125 147.5546875 C66.83920091 144.03724287 59.08850341 138.61493132 51.1953125 133.4296875 C43.81068363 128.60446461 36.38931114 123.84489264 28.92236328 119.14819336 C24.66747774 116.47147877 20.41963604 113.78458913 16.18359375 111.078125 C7.73329078 105.67913593 -0.72253978 100.30463623 -9.3046875 95.1171875 C-17.16512959 90.35906347 -24.85915613 85.36440967 -32.54077148 80.32373047 C-39.27979868 75.90427363 -46.0587364 71.55381218 -52.8671875 67.2421875 C-59.34586038 63.12772867 -65.82285897 59.0113401 -72.2421875 54.8046875 C-73.18868164 54.19500122 -73.18868164 54.19500122 -74.15429688 53.57299805 C-75.59518632 52.62003866 -76.9877614 51.59462867 -78.3671875 50.5546875 C-78.3671875 49.8946875 -78.3671875 49.2346875 -78.3671875 48.5546875 C-76.14675338 47.02581317 -73.92798684 45.62362299 -71.6171875 44.2421875 C-70.1304499 43.33376464 -68.64482115 42.42352515 -67.16015625 41.51171875 C-66.37302246 41.02912598 -65.58588867 40.5465332 -64.77490234 40.04931641 C-60.7852632 37.57268176 -56.85891687 35.00069889 -52.9296875 32.4296875 C-44.10537804 26.66669672 -35.2374662 20.97420519 -26.33911133 15.32617188 C-21.70756765 12.37734899 -17.10712267 9.41298768 -12.62109375 6.24609375 C-11.93184814 5.76358154 -11.24260254 5.28106934 -10.5324707 4.78393555 C-9.29946224 3.91210662 -8.0768683 3.02525877 -6.86791992 2.12036133 C-4.40079744 0.37972131 -3.04131116 -0.57212784 0 0 Z " fill="#1DC5FA" transform="translate(387.3671875,273.4453125)"/>
<path d="M0 0 C0.53516219 12.64682749 0.94263873 25.29092795 1.19167995 37.94680882 C1.31128409 43.82564632 1.47310152 49.69669407 1.73510742 55.57104492 C3.43593015 94.71470293 3.43593015 94.71470293 -2.1484375 102.53082275 C-7.29709934 107.75646536 -13.08152871 110.4779898 -19.94958496 112.82173157 C-25.22210099 114.85831974 -29.71503311 118.09806026 -34.375 121.25 C-36.19183641 122.41040845 -38.01170574 123.56609626 -39.8359375 124.71484375 C-44.57308043 127.72323711 -49.29111179 130.76011308 -54 133.8125 C-54.67925537 134.25215088 -55.35851074 134.69180176 -56.05834961 135.14477539 C-59.4080447 137.31423749 -62.75213019 139.49183504 -66.08984375 141.6796875 C-67.37237491 142.5156571 -68.65492604 143.35159607 -69.9375 144.1875 C-70.81631836 144.76818237 -70.81631836 144.76818237 -71.71289062 145.3605957 C-75.77407516 148 -75.77407516 148 -78 148 C-78.34823225 135.26559656 -78.61440425 122.53233276 -78.77718258 109.79413033 C-78.8553306 103.87829052 -78.96121819 97.9657172 -79.1315918 92.05175781 C-79.29512733 86.33911218 -79.38436691 80.62959736 -79.42315865 74.91479111 C-79.45078208 72.73992479 -79.5047352 70.56522185 -79.58595085 68.39169693 C-80.18018546 51.82273252 -80.18018546 51.82273252 -76.55822754 47.1333065 C-73.06402185 43.96004669 -69.16859812 41.8456643 -64.89373779 39.90280724 C-61.95994838 38.50417311 -59.36123899 36.72020766 -56.6640625 34.91015625 C-54.65191981 33.62622692 -52.63889173 32.34368414 -50.625 31.0625 C-48.44769015 29.6735321 -46.27060728 28.28420833 -44.09375 26.89453125 C-43.05089844 26.2288916 -42.00804687 25.56325195 -40.93359375 24.87744141 C-36.98661983 22.35145693 -33.054706 19.80272643 -29.125 17.25 C-22.95083851 13.24998898 -16.76552664 9.26761411 -10.5625 5.3125 C-9.73830566 4.78237305 -8.91411133 4.25224609 -8.06494141 3.70605469 C-7.3022998 3.22168945 -6.5396582 2.73732422 -5.75390625 2.23828125 C-5.07658447 1.80555908 -4.3992627 1.37283691 -3.70141602 0.92700195 C-2 0 -2 0 0 0 Z " fill="#497CDA" transform="translate(232,373)"/>
<path d="M0 0 C3.20237872 1.25278975 6.07970155 2.54177048 8.9765625 4.3984375 C9.71962646 4.87144287 10.46269043 5.34444824 11.22827148 5.83178711 C12.01919189 6.34104736 12.8101123 6.85030762 13.625 7.375 C15.33713914 8.46760533 17.04938157 9.56004882 18.76171875 10.65234375 C19.6336084 11.21034668 20.50549805 11.76834961 21.40380859 12.34326172 C24.62859875 14.40113514 27.86697896 16.43687596 31.10620117 18.47192383 C40.22503609 24.2044996 49.26793392 30.04873089 58.2890625 35.93359375 C63.6858084 39.45258888 69.11146661 42.9255922 74.54296875 46.390625 C77 48 77 48 78 49 C78.09532328 52.07454761 78.1255138 55.12659158 78.11352539 58.20141602 C78.11367142 59.16716553 78.11381744 60.13291504 78.1139679 61.12792969 C78.11326834 64.33661099 78.10547397 67.54523503 78.09765625 70.75390625 C78.09579222 72.97208118 78.09436825 75.19025652 78.09336853 77.40843201 C78.08954216 83.25940071 78.07971086 89.11034477 78.06866455 94.96130371 C78.05845299 100.92667304 78.05387146 106.89204633 78.04882812 112.85742188 C78.03808869 124.57162544 78.02101085 136.28581067 78 148 C74.76628597 146.73747592 71.91164534 145.44196159 69.015625 143.5234375 C68.25870361 143.02610107 67.50178223 142.52876465 66.72192383 142.01635742 C65.90618896 141.47470947 65.0904541 140.93306152 64.25 140.375 C62.44718786 139.19053324 60.64377462 138.006981 58.83984375 136.82421875 C57.88835449 136.19950684 56.93686523 135.57479492 55.95654297 134.93115234 C50.93082051 131.64845502 45.87155182 128.4185044 40.8125 125.1875 C39.77947754 124.52717773 38.74645508 123.86685547 37.68212891 123.18652344 C35.55565875 121.82739035 33.42902922 120.46850657 31.30224609 119.10986328 C26.69742213 116.16776002 22.09392684 113.2235828 17.4909668 110.27856445 C15.28820913 108.86922773 13.08525464 107.46019858 10.88208008 106.05151367 C9.89232178 105.41834229 8.90256348 104.7851709 7.8828125 104.1328125 C7.01027832 103.57480957 6.13774414 103.01680664 5.23876953 102.44189453 C3.4821477 101.31053046 1.73850829 100.15900553 0 99 C-0.36914349 97.20778465 -0.36914349 97.20778465 -0.36076355 95.00106812 C-0.36488754 94.16531754 -0.36901154 93.32956696 -0.3732605 92.4684906 C-0.36247467 91.54995804 -0.35168884 90.63142548 -0.34057617 89.68505859 C-0.34101425 88.71916306 -0.34145233 87.75326752 -0.34190369 86.75810242 C-0.339808 83.55467754 -0.31644007 80.35177132 -0.29296875 77.1484375 C-0.28737557 74.9316944 -0.28310416 72.71494759 -0.28010559 70.49819946 C-0.26863494 64.65537327 -0.2391486 58.81276976 -0.20599365 52.97003174 C-0.1753406 47.01130181 -0.16161045 41.052536 -0.14648438 35.09375 C-0.11428108 23.39573534 -0.06305791 11.69788616 0 0 Z " fill="#497CDA" transform="translate(385,373)"/>
<path d="M0 0 C8.58 0 17.16 0 26 0 C26 13.86 26 27.72 26 42 C38.21 42 50.42 42 63 42 C63 28.14 63 14.28 63 0 C71.58 0 80.16 0 89 0 C89 35.31 89 70.62 89 107 C80.42 107 71.84 107 63 107 C63 92.81 63 78.62 63 64 C50.79 64 38.58 64 26 64 C26 78.19 26 92.38 26 107 C17.42 107 8.84 107 0 107 C0 71.69 0 36.38 0 0 Z " fill="#25BEEB" transform="translate(332,603)"/>
<path d="M0 0 C8.58 0 17.16 0 26 0 C26 13.86 26 27.72 26 42 C38.21 42 50.42 42 63 42 C63 28.14 63 14.28 63 0 C71.58 0 80.16 0 89 0 C89 35.31 89 70.62 89 107 C80.42 107 71.84 107 63 107 C63 92.81 63 78.62 63 64 C50.79 64 38.58 64 26 64 C26 78.19 26 92.38 26 107 C17.42 107 8.84 107 0 107 C0 71.69 0 36.38 0 0 Z " fill="#4E70E8" transform="translate(27,603)"/>
<path d="M0 0 C8.25 0 16.5 0 25 0 C25.33 13.86 25.66 27.72 26 42 C27.98 39.525 27.98 39.525 30 37 C32 35.671875 32 35.671875 34 34.75 C34.66 34.43546875 35.32 34.1209375 36 33.796875 C43.87382218 30.65964897 53.13563982 30.95767024 60.98046875 34.0390625 C70.41928923 38.53026141 75.93427863 46.23045307 79.4375 56 C83.14828328 69.62226937 82.20555711 84.30363845 75.4921875 96.80859375 C70.94249253 103.92939541 65.44278062 108.15582691 57.6875 111.375 C46.89101799 113.20491221 38.03623577 112.1884085 28.9375 105.875 C27 104 27 104 26 102 C25.67 104.64 25.34 107.28 25 110 C16.75 110 8.5 110 0 110 C0 73.7 0 37.4 0 0 Z M27 60 C23.79986674 65.7335721 24.14572971 73.7830112 25.4296875 80.12109375 C27.16633055 84.93438221 30.52065877 88.63497468 35 91 C39.9756898 92.03135342 43.77836417 91.56557215 48.375 89.4375 C53.92565536 84.28332002 55.73296822 79.35947711 56.1640625 71.91796875 C55.80648321 65.55816572 53.89889769 59.89889769 49.375 55.375 C40.65457395 50.32633228 33.26811066 52.33723472 27 60 Z " fill="#12E3ED" transform="translate(527,600)"/>
<path d="M0 0 C9.3835687 7.53700298 12.99846475 15.88141348 14.9453125 27.5625 C14.9453125 31.8525 14.9453125 36.1425 14.9453125 40.5625 C-1.8846875 40.5625 -18.7146875 40.5625 -36.0546875 40.5625 C-33.01794803 48.84603759 -33.01794803 48.84603759 -29.9921875 51.625 C-24.90954837 53.24711887 -18.9850303 53.61019062 -13.90234375 51.79296875 C-11.91501611 50.65265212 -11.91501611 50.65265212 -10.77197266 48.51000977 C-9.0546875 46.5625 -9.0546875 46.5625 -6.6027832 46.10839844 C-5.65491943 46.1293457 -4.70705566 46.15029297 -3.73046875 46.171875 C-2.18842773 46.19121094 -2.18842773 46.19121094 -0.61523438 46.2109375 C0.45662109 46.24445312 1.52847656 46.27796875 2.6328125 46.3125 C3.71626953 46.33054687 4.79972656 46.34859375 5.91601562 46.3671875 C8.59333396 46.41436492 11.26888159 46.48017751 13.9453125 46.5625 C12.89242322 54.98561425 8.56404041 62.08634192 1.8671875 67.31640625 C-8.22987134 73.86307651 -19.50007439 74.79653954 -31.25 73.1015625 C-41.97282515 70.77051356 -49.62694404 65.41738617 -56.0546875 56.5625 C-62.11993151 46.9907868 -63.46753248 35.7415479 -61.5546875 24.66796875 C-59.41613405 15.98009537 -55.8629313 8.51971332 -49.0546875 2.5625 C-48.3121875 1.881875 -47.5696875 1.20125 -46.8046875 0.5 C-33.11278542 -9.14656738 -13.90948479 -9.4607022 0 0 Z M-33.0546875 16.5625 C-35.63170859 19.99852812 -36.0546875 21.16322868 -36.0546875 25.5625 C-27.4746875 25.5625 -18.8946875 25.5625 -10.0546875 25.5625 C-11.06762343 18.13499417 -11.06762343 18.13499417 -16.0546875 13.5625 C-22.00767923 10.58600413 -28.28068469 12.35683086 -33.0546875 16.5625 Z " fill="#2DAEEB" transform="translate(302.0546875,638.4375)"/>
<path d="M0 0 C3.97915159 -0.02886984 7.95827653 -0.04675406 11.9375 -0.0625 C13.07380859 -0.07087891 14.21011719 -0.07925781 15.38085938 -0.08789062 C16.46044922 -0.09111328 17.54003906 -0.09433594 18.65234375 -0.09765625 C20.15269165 -0.10551147 20.15269165 -0.10551147 21.68334961 -0.11352539 C24 0 24 0 25 1 C25.09665988 2.56952729 25.12515686 4.14331964 25.12597656 5.71582031 C25.13168671 7.22308685 25.13168671 7.22308685 25.13751221 8.76080322 C25.13853943 9.85551941 25.13956665 10.9502356 25.140625 12.078125 C25.15895489 14.37631198 25.17852536 16.67448934 25.19921875 18.97265625 C25.22819455 22.61132966 25.24999992 26.24938731 25.25048828 29.88818359 C25.25381975 33.38955888 25.28836017 36.88949849 25.328125 40.390625 C25.3210553 41.47724426 25.3139856 42.56386353 25.30670166 43.68341064 C25.39041043 49.86675938 25.39041043 49.86675938 28.31933594 55.20214844 C31.79485367 57.53308765 33.88778064 57.44860575 38 57 C38.763125 56.95875 39.52625 56.9175 40.3125 56.875 C42.24757403 56.09022668 42.24757403 56.09022668 43.07958984 53.66552734 C44.35459265 48.5878371 44.35735014 43.69414934 44.4140625 38.4765625 C44.43342865 37.37524994 44.4527948 36.27393738 44.4727478 35.13925171 C44.53234928 31.63457901 44.57885162 28.12987312 44.625 24.625 C44.66319762 22.24347555 44.70225039 19.86196466 44.7421875 17.48046875 C44.83803488 11.65376646 44.92313901 5.82698201 45 0 C49.14581887 -0.02886751 53.29161216 -0.04675327 57.4375 -0.0625 C58.62150391 -0.07087891 59.80550781 -0.07925781 61.02539062 -0.08789062 C62.15009766 -0.09111328 63.27480469 -0.09433594 64.43359375 -0.09765625 C65.47572021 -0.10289307 66.51784668 -0.10812988 67.59155273 -0.11352539 C70 0 70 0 71 1 C71.09494733 3.37300869 71.12559319 5.71678703 71.11352539 8.09008789 C71.11367142 8.83150528 71.11381744 9.57292267 71.1139679 10.33680725 C71.11326865 12.79878621 71.10547574 15.26069043 71.09765625 17.72265625 C71.09579211 19.42516539 71.09436819 21.12767507 71.09336853 22.83018494 C71.08954302 27.31993073 71.07971247 31.80964438 71.06866455 36.29937744 C71.05845113 40.87731491 71.05387106 45.45525756 71.04882812 50.03320312 C71.03809022 59.02215184 71.02049316 68.01106822 71 77 C62.42 77 53.84 77 45 77 C44.505 73.04 44.505 73.04 44 69 C43.5875 69.47050781 43.175 69.94101562 42.75 70.42578125 C36.9895436 76.63627331 32.10635823 79.0552416 23.625 79.4375 C17.05192936 79.20958493 10.94452812 77.86527581 6.11328125 73.1640625 C1.61825694 67.48270005 -0.25724017 61.99488176 -0.22705078 54.71923828 C-0.22689972 53.4984256 -0.22674866 52.27761292 -0.22659302 51.01980591 C-0.21627045 49.71647308 -0.20594788 48.41314026 -0.1953125 47.0703125 C-0.19157802 45.71125497 -0.1887331 44.35219474 -0.18673706 42.99313354 C-0.17913483 39.43225551 -0.1595161 35.87154303 -0.1373291 32.31072998 C-0.11679679 28.67071776 -0.10771962 25.03067855 -0.09765625 21.390625 C-0.07626662 14.26034932 -0.04217234 7.13018552 0 0 Z " fill="#14DFED" transform="translate(439,633)"/>
<path d="M0 0 C10.12244898 5.62358277 10.12244898 5.62358277 14.46875 8.42578125 C15.43925293 9.04936523 16.40975586 9.67294922 17.40966797 10.31542969 C18.93938232 11.30397949 18.93938232 11.30397949 20.5 12.3125 C22.15455774 13.37647836 23.80911816 14.44045259 25.46383667 15.50418091 C27.17338636 16.60365275 28.88217638 17.70429697 30.59082031 18.80517578 C36.01227954 22.29707767 41.44361691 25.77356167 46.875 29.25 C47.90230225 29.90782471 48.92960449 30.56564941 49.98803711 31.2434082 C59.30037362 37.20196741 68.64319657 43.11157067 78 49 C76.66751655 52.14404811 75.51892925 53.63118779 72.5703125 55.33984375 C71.8680957 55.75596924 71.16587891 56.17209473 70.44238281 56.60083008 C69.67764648 57.04193115 68.91291016 57.48303223 68.125 57.9375 C66.47502971 58.91669263 64.82664697 59.89856423 63.1796875 60.8828125 C62.32342773 61.39360352 61.46716797 61.90439453 60.58496094 62.43066406 C56.41186897 64.96415813 52.33147755 67.63474177 48.25 70.3125 C40.15140568 75.6123154 32.00846858 80.83729909 23.83398438 86.01928711 C19.73257628 88.62026096 15.63659241 91.22716882 11.5703125 93.8828125 C10.58877197 94.52234863 10.58877197 94.52234863 9.58740234 95.17480469 C7.88405077 96.28743773 6.18406567 97.40521995 4.484375 98.5234375 C2 100 2 100 0 100 C0 67 0 34 0 0 Z " fill="#10E8EE" transform="translate(154,7)"/>
<path d="M0 0 C0 33 0 66 0 100 C-6.97391194 95.9318847 -13.88887124 91.89529285 -20.6875 87.5625 C-21.47366699 87.06371338 -22.25983398 86.56492676 -23.06982422 86.05102539 C-25.71529275 84.37058822 -28.35799311 82.68587411 -31 81 C-32.49829346 80.04432129 -32.49829346 80.04432129 -34.02685547 79.06933594 C-52.62875812 67.19749521 -52.62875812 67.19749521 -61.23046875 61.60546875 C-62.40391846 60.84278687 -62.40391846 60.84278687 -63.60107422 60.06469727 C-65.02721339 59.13624256 -66.45211458 58.20588214 -67.87548828 57.27319336 C-70.86869788 55.32286151 -73.79650051 53.60174975 -77 52 C-77 65.2 -77 78.4 -77 92 C-77.33 92 -77.66 92 -78 92 C-78.27316172 86.16541848 -78.47205699 80.33459697 -78.60424805 74.49511719 C-78.65936957 72.51203564 -78.73429634 70.52939727 -78.82983398 68.54785156 C-79.60076321 52.13983908 -79.60076321 52.13983908 -75.79248047 47.04907227 C-72.95336063 44.95844766 -70.20311186 43.46073199 -67 42 C-65.5874349 41.13175594 -64.18493742 40.24674541 -62.796875 39.33984375 C-61.45012317 38.53535715 -60.10109535 37.73467034 -58.75 36.9375 C-51.71300366 32.70869116 -44.80194293 28.31571525 -37.9375 23.8125 C-29.91954688 18.55596763 -21.88683439 13.32465168 -13.81692505 8.14828491 C-12.14633039 7.07618867 -10.47732905 6.00161095 -8.80834961 4.92700195 C-7.80167236 4.28206787 -6.79499512 3.63713379 -5.7578125 2.97265625 C-4.8620752 2.39781494 -3.96633789 1.82297363 -3.04345703 1.23071289 C-1 0 -1 0 0 0 Z " fill="#0CDDE7" transform="translate(232,74)"/>
<path d="M0 0 C0 33 0 66 0 100 C-5.62091135 97.75163546 -5.62091135 97.75163546 -8.43359375 95.890625 C-9.38878906 95.26474487 -9.38878906 95.26474487 -10.36328125 94.6262207 C-11.04777344 94.17206787 -11.73226562 93.71791504 -12.4375 93.25 C-13.96688809 92.24784305 -15.49686485 91.24658405 -17.02734375 90.24609375 C-17.83671387 89.71612793 -18.64608398 89.18616211 -19.47998047 88.64013672 C-23.79802805 85.82976628 -28.14981517 83.07275764 -32.5 80.3125 C-40.77774322 75.05245455 -49.04911455 69.78257696 -57.3125 64.5 C-58.34375 63.84169189 -59.375 63.18338379 -60.4375 62.50512695 C-63.29601566 60.67675121 -66.14828674 58.83896004 -69 57 C-69.90024902 56.42894531 -70.80049805 55.85789063 -71.72802734 55.26953125 C-72.55383301 54.73714844 -73.37963867 54.20476563 -74.23046875 53.65625 C-74.96031982 53.19025391 -75.6901709 52.72425781 -76.44213867 52.24414062 C-76.95623291 51.83357422 -77.47032715 51.42300781 -78 51 C-78 50.34 -78 49.68 -78 49 C-76.19360352 47.64990234 -76.19360352 47.64990234 -73.62890625 46.0859375 C-72.67508057 45.49820557 -71.72125488 44.91047363 -70.73852539 44.30493164 C-69.16639282 43.34961548 -69.16639282 43.34961548 -67.5625 42.375 C-65.34298228 41.00775591 -63.12425596 39.63922642 -60.90625 38.26953125 C-60.3336293 37.9169072 -59.76100861 37.56428314 -59.17103577 37.20097351 C-53.25819514 33.55573817 -47.40675545 29.81656922 -41.5625 26.0625 C-40.54534912 25.40991211 -39.52819824 24.75732422 -38.48022461 24.08496094 C-36.39917463 22.74955925 -34.31836592 21.41378151 -32.23779297 20.07763672 C-28.81807583 17.88326235 -25.39584312 15.69286182 -21.97265625 13.50390625 C-21.39614822 13.13521927 -20.8196402 12.76653229 -20.22566223 12.38667297 C-17.44424589 10.60796227 -14.66271106 8.82943708 -11.88110352 7.05102539 C-10.89166748 6.41801514 -9.90223145 5.78500488 -8.8828125 5.1328125 C-8.01027832 4.57480957 -7.13774414 4.01680664 -6.23876953 3.44189453 C-0.89468337 0 -0.89468337 0 0 0 Z " fill="#10E8ED" transform="translate(463,7)"/>
<path d="M0 0 C12.4801139 6.80733485 12.4801139 6.80733485 18 10.625 C23.72300656 14.50969392 29.51667953 18.2601094 35.375 21.9375 C42.20693558 26.22797477 49.00176746 30.5689194 55.7590332 34.97607422 C59.35075022 37.31156237 62.96237846 39.60413213 66.6171875 41.83984375 C67.36266846 42.2972998 68.10814941 42.75475586 68.8762207 43.22607422 C70.30578862 44.09993852 71.73909554 44.96772283 73.17651367 45.82861328 C74.81793865 46.83278406 76.41454622 47.90960043 78 49 C78 49.66 78 50.32 78 51 C76.58569336 52.078125 76.58569336 52.078125 74.58984375 53.25 C73.85515869 53.68820068 73.12047363 54.12640137 72.36352539 54.57788086 C71.56293701 55.04718018 70.76234863 55.51647949 69.9375 56 C64.05225783 59.51843295 58.23841724 63.08975156 52.5625 66.9375 C46.3367231 71.14500763 40.01223003 75.17377363 33.64477539 79.16308594 C25.84975096 84.06115704 18.15382121 89.1078759 10.4765625 94.18823242 C9.08050781 95.1063269 9.08050781 95.1063269 7.65625 96.04296875 C6.82931641 96.58977295 6.00238281 97.13657715 5.15039062 97.69995117 C3 99 3 99 0 100 C0 67 0 34 0 0 Z " fill="#0CDDE7" transform="translate(385,74)"/>
<path d="M0 0 C0.99 0.495 0.99 0.495 2 1 C1.67 33.67 1.34 66.34 1 100 C-4.6641044 96.85327534 -10.11514499 93.73556034 -15.5 90.1875 C-16.98914567 89.215475 -18.47875862 88.24416563 -19.96875 87.2734375 C-20.77183594 86.74975586 -21.57492187 86.22607422 -22.40234375 85.68652344 C-27.25260584 82.53749989 -32.12786296 79.42752244 -37 76.3125 C-38.56524414 75.30896484 -38.56524414 75.30896484 -40.16210938 74.28515625 C-45.20891895 71.05151656 -50.26195704 67.8290377 -55.33959961 64.64405823 C-57.66869909 63.18218045 -59.99392559 61.71420679 -62.31884766 60.24569702 C-63.97312048 59.20441924 -65.63300679 58.17207681 -67.29296875 57.13989258 C-68.28941406 56.50978271 -69.28585937 55.87967285 -70.3125 55.23046875 C-71.63701172 54.40131958 -71.63701172 54.40131958 -72.98828125 53.55541992 C-75 52 -75 52 -76 49 C-75.07703125 48.42894531 -74.1540625 47.85789062 -73.203125 47.26953125 C-64.75958429 42.02795377 -56.3921026 36.6810617 -48.07055664 31.24804688 C-41.1370974 26.72596873 -34.16621339 22.26434762 -27.1875 17.8125 C-18.05172381 11.98136082 -8.97721235 6.07239079 0 0 Z " fill="#22C9EE" transform="translate(385,273)"/>
<path d="M0 0 C0 32.67 0 65.34 0 99 C-3.19705051 97.40147474 -6.06808048 95.739689 -9.0625 93.8125 C-10.03703125 93.18730469 -11.0115625 92.56210937 -12.015625 91.91796875 C-13.00046875 91.28503906 -13.9853125 90.65210938 -15 90 C-16.77029565 88.87415409 -18.54112269 87.74914329 -20.3125 86.625 C-26.28830319 82.82221615 -32.2455053 78.99066641 -38.20166016 75.15722656 C-40.55321691 73.6440065 -42.9054641 72.13186209 -45.2578125 70.61987305 C-46.41805333 69.87407362 -47.57820977 69.1281429 -48.73828125 68.38208008 C-51.71594621 66.46721117 -54.69482268 64.55426946 -57.67578125 62.64453125 C-60.04541466 61.12615911 -62.41265132 59.60418045 -64.77734375 58.078125 C-66.80690735 56.76936399 -68.84025394 55.46643305 -70.87890625 54.171875 C-71.70261719 53.64078125 -72.52632813 53.1096875 -73.375 52.5625 C-74.08398438 52.11003906 -74.79296875 51.65757812 -75.5234375 51.19140625 C-76.01070313 50.79824219 -76.49796875 50.40507812 -77 50 C-77 49.34 -77 48.68 -77 48 C-75.52563477 46.84594727 -75.52563477 46.84594727 -73.44140625 45.56640625 C-72.6716748 45.0880835 -71.90194336 44.60976074 -71.10888672 44.11694336 C-70.2685791 43.60397705 -69.42827148 43.09101074 -68.5625 42.5625 C-66.80546263 41.4722029 -65.04896238 40.38103982 -63.29296875 39.2890625 C-62.40270996 38.73766602 -61.51245117 38.18626953 -60.59521484 37.61816406 C-56.82652131 35.26831451 -53.09821143 32.85855199 -49.375 30.4375 C-48.33134277 29.76050049 -48.33134277 29.76050049 -47.26660156 29.06982422 C-45.17713297 27.7141398 -43.08848679 26.35719632 -41 25 C-36.14725754 21.84787081 -31.29113264 18.70109821 -26.42773438 15.56542969 C-24.66538034 14.42904452 -22.90375705 13.29152583 -21.14257812 12.15332031 C-18.11898543 10.20151627 -15.09121062 8.25635071 -12.0625 6.3125 C-11.09610596 5.68754639 -10.12971191 5.06259277 -9.1340332 4.41870117 C-8.23515381 3.8435376 -7.33627441 3.26837402 -6.41015625 2.67578125 C-5.60715088 2.15927002 -4.80414551 1.64275879 -3.97680664 1.1105957 C-2 0 -2 0 0 0 Z " fill="#5B6BEF" transform="translate(386,174)"/>
<path d="M0 0 C4.61192055 0.51916395 7.5871355 1.67405545 11.45703125 4.2109375 C12.47796875 4.87287109 13.49890625 5.53480469 14.55078125 6.21679688 C15.62714844 6.92900391 16.70351562 7.64121094 17.8125 8.375 C18.94468092 9.11359925 20.07750004 9.85122108 21.2109375 10.58789062 C23.46008486 12.05173837 25.70480661 13.52171529 27.94775391 14.99511719 C31.78600027 17.51628813 35.64194244 20.00931839 39.5 22.5 C40.1386499 22.91419189 40.7772998 23.32838379 41.43530273 23.75512695 C49.17104793 28.77166329 56.94359852 33.7309667 64.71289062 38.6953125 C65.74349609 39.35402344 66.77410156 40.01273438 67.8359375 40.69140625 C68.75938965 41.28123291 69.6828418 41.87105957 70.63427734 42.47875977 C72.43368032 43.63583716 74.21998029 44.81332019 76 46 C74.66751655 49.14404811 73.51892925 50.63118779 70.5703125 52.33984375 C69.8683374 52.75580811 69.1663623 53.17177246 68.44311523 53.6003418 C67.67813721 54.041604 66.91315918 54.48286621 66.125 54.9375 C64.47114158 55.91932806 62.81885097 56.90380085 61.16796875 57.890625 C60.31122559 58.40173828 59.45448242 58.91285156 58.57177734 59.43945312 C54.46677346 61.93035732 50.45213455 64.55422763 46.4375 67.1875 C38.63211547 72.29426791 30.79618404 77.35059545 22.9375 82.375 C21.91519287 83.02879639 20.89288574 83.68259277 19.83959961 84.35620117 C17.8688264 85.61578301 15.89741011 86.87435933 13.92529297 88.13183594 C11.89571852 89.42797212 9.86888573 90.72840749 7.84423828 92.03222656 C6.34546143 92.99467285 6.34546143 92.99467285 4.81640625 93.9765625 C3.46397827 94.84788818 3.46397827 94.84788818 2.08422852 95.73681641 C0 97 0 97 -1 97 C-1.16609541 64.65483549 -0.69725341 32.33736892 0 0 Z " fill="#2ABBEE" transform="translate(232,176)"/>
<path d="M0 0 C4.32489752 0.8649795 5.64185304 1.15062791 8.9375 3.5 C12.80605684 6.18365118 16.7206172 8.77703991 20.6875 11.3125 C21.91410969 12.09888474 23.14067171 12.88534382 24.3671875 13.671875 C24.97788086 14.06310547 25.58857422 14.45433594 26.21777344 14.85742188 C29.47045508 16.94270271 32.71814325 19.03575779 35.96655273 21.12768555 C40.00064356 23.72248594 44.04373925 26.30287608 48.08984375 28.87890625 C49.73182739 29.92582642 49.73182739 29.92582642 51.40698242 30.99389648 C53.58437629 32.38193936 55.7628704 33.76825829 57.94262695 35.15258789 C64.41143867 39.27909452 70.75534646 43.54126878 77 48 C73.03970387 51.29897989 68.89628201 54.10562752 64.5625 56.875 C63.83095703 57.34550781 63.09941406 57.81601562 62.34570312 58.30078125 C55.30392787 62.82302224 48.2380798 67.30776667 41.17407227 71.79516602 C35.43368934 75.4436763 29.70781012 79.11324937 24 82.8125 C22.98184204 83.47149292 22.98184204 83.47149292 21.94311523 84.14379883 C18.59294891 86.31361254 15.24836051 88.49151339 11.91015625 90.6796875 C10.62762509 91.5156571 9.34507396 92.35159607 8.0625 93.1875 C7.47662109 93.57462158 6.89074219 93.96174316 6.28710938 94.3605957 C2.22592484 97 2.22592484 97 0 97 C0 64.99 0 32.98 0 0 Z " fill="#5C6CEE" transform="translate(232,275)"/>
<path d="M0 0 C0 8.25 0 16.5 0 25 C-1.98 24.938125 -3.96 24.87625 -6 24.8125 C-12.95169177 24.82762882 -18.18602866 25.26008054 -23.375 30.3125 C-26.85008649 36.05975843 -27.31968927 41.36051985 -27.4140625 47.8984375 C-27.43342865 48.73339752 -27.4527948 49.56835754 -27.4727478 50.42861938 C-27.53219614 53.07731126 -27.57878894 55.72604743 -27.625 58.375 C-27.66321182 60.17840364 -27.70226539 61.98178966 -27.7421875 63.78515625 C-27.83944275 68.19000883 -27.91928553 72.59468945 -28 77 C-36.25 77 -44.5 77 -53 77 C-53 51.59 -53 26.18 -53 0 C-45.08 0 -37.16 0 -29 0 C-27.03177114 1.96822886 -27.33751619 5.34808709 -27 8 C-26.01 6.88625 -26.01 6.88625 -25 5.75 C-18.68734917 -0.42197894 -8.48785432 -4.24392716 0 0 Z " fill="#3C92E9" transform="translate(232,633)"/>
<path d="M0 0 C8.25 0 16.5 0 25 0 C25 25.41 25 50.82 25 77 C16.75 77 8.5 77 0 77 C0 51.59 0 26.18 0 0 Z " fill="#4189E9" transform="translate(135,633)"/>
<path d="M0 0 C3.49940678 1.96672086 5.41469539 3.39004271 6.75 7.3125 C7.45152742 11.97729572 7.85827067 16.31900685 5.5078125 20.546875 C2.43939539 24.24118814 0.21202079 26.00278719 -4.703125 26.62109375 C-9.7747129 26.85484012 -13.30050286 26.91568498 -17.3125 23.5625 C-20.62618798 20.35413707 -22.13543033 17.54985245 -22.5625 12.9375 C-22.10787725 7.66387613 -20.6359881 4.59453899 -16.75 1 C-11.3386198 -2.65268163 -5.85719183 -2.67510787 0 0 Z " fill="#5464E8" transform="translate(155.25,598.6875)"/>
</svg>
